<svg width="239" height="42" viewBox="0 0 239 42" fill="none" xmlns="http://www.w3.org/2000/svg">
<path d="M119.992 9V34.248H116.728V29.64C115.832 31.176 114.6 32.376 113.032 33.24C111.464 34.072 109.672 34.488 107.656 34.488C104.36 34.488 101.752 33.576 99.832 31.752C97.944 29.896 97 27.192 97 23.64V9H100.408V23.304C100.408 25.96 101.064 27.976 102.376 29.352C103.688 30.728 105.56 31.416 107.992 31.416C110.648 31.416 112.744 30.616 114.28 29.016C115.816 27.384 116.584 25.128 116.584 22.248V9H119.992Z" fill="white"/>
<path d="M63.992 9V34.248H60.728V29.64C59.832 31.176 58.6 32.376 57.032 33.24C55.464 34.072 53.672 34.488 51.656 34.488C48.36 34.488 45.752 33.576 43.832 31.752C41.944 29.896 41 27.192 41 23.64V9H44.408V23.304C44.408 25.96 45.064 27.976 46.376 29.352C47.688 30.728 49.56 31.416 51.992 31.416C54.648 31.416 56.744 30.616 58.28 29.016C59.816 27.384 60.584 25.128 60.584 22.248V9H63.992Z" fill="white"/>
<path d="M36 17.5043C36 20.6183 35.298 23.4537 33.8939 26.0105C32.5224 28.5673 30.5959 30.6325 28.1143 32.2059C25.6653 33.7465 22.8898 34.6479 19.7878 34.9102V41.3514H16.2122V34.9102C13.1102 34.6479 10.3184 33.7301 7.83673 32.1567C5.38775 30.5833 3.46122 28.5346 2.05714 26.0105C0.685714 23.4537 0 20.6183 0 17.5043C0 14.1935 0.767347 11.2106 2.30204 8.55545C3.86939 5.90031 6.02449 3.81881 8.76735 2.31096C11.5429 0.770319 14.6286 0 18.0245 0C21.4204 0 24.4735 0.753929 27.1837 2.26179C29.9265 3.76964 32.0816 5.86753 33.649 8.55545C35.2163 11.2106 36 14.1935 36 17.5043ZM19.6898 31.665C22.1388 31.4356 24.3265 30.6816 26.2531 29.4032C28.1796 28.092 29.6816 26.4039 30.7592 24.3388C31.8367 22.2737 32.3755 19.9955 32.3755 17.5043C32.3755 14.8163 31.7551 12.3907 30.5143 10.2272C29.2735 8.06376 27.5592 6.35923 25.3714 5.1136C23.1837 3.86798 20.7347 3.24517 18.0245 3.24517C15.3143 3.24517 12.849 3.86798 10.6286 5.1136C8.44082 6.35923 6.7102 8.06376 5.43673 10.2272C4.19592 12.3907 3.57551 14.8163 3.57551 17.5043C3.57551 19.9955 4.11429 22.2737 5.19184 24.3388C6.30204 26.4039 7.82041 28.0757 9.74694 29.3541C11.6735 30.6325 13.8612 31.4028 16.3102 31.665V23.1587H19.6898V31.665Z" fill="white"/>
<ellipse cx="23.3572" cy="18.6303" rx="2.18919" ry="2.43243" transform="rotate(21.358 23.3572 18.6303)" fill="white"/>
<ellipse cx="2.18919" cy="2.43243" rx="2.18919" ry="2.43243" transform="matrix(-0.931323 0.364194 0.364194 0.931323 13.8074 15.5676)" fill="white"/>
<path d="M227.363 30.6884C228.933 30.6884 230.375 30.416 231.689 29.8712C233.035 29.2944 234.173 28.4612 235.102 27.3716L237.025 29.5828C235.903 30.9287 234.509 31.9542 232.843 32.6592C231.176 33.3642 229.334 33.7167 227.315 33.7167C224.719 33.7167 222.412 33.1719 220.393 32.0823C218.374 30.9607 216.804 29.4225 215.682 27.4678C214.561 25.513 214 23.3018 214 20.8343C214 18.3668 214.529 16.1556 215.586 14.2008C216.676 12.2461 218.166 10.7239 220.057 9.63433C221.947 8.54478 224.094 8 226.498 8C228.741 8 230.76 8.51273 232.554 9.53819C234.381 10.5637 235.823 11.9897 236.881 13.8163C237.97 15.6429 238.547 17.7259 238.611 20.0652L217.845 24.103C218.486 26.1539 219.64 27.7722 221.306 28.9579C223.005 30.1115 225.024 30.6884 227.363 30.6884ZM226.498 10.9322C224.735 10.9322 223.149 11.3488 221.739 12.182C220.361 12.9831 219.272 14.1207 218.47 15.5948C217.701 17.0369 217.317 18.7033 217.317 20.594C217.317 21.0746 217.333 21.4271 217.365 21.6515L235.198 18.1905C234.814 16.0755 233.836 14.345 232.266 12.9991C230.696 11.6212 228.773 10.9322 226.498 10.9322Z" fill="white"/>
<path d="M136.948 30.6884C138.518 30.6884 139.96 30.416 141.274 29.8712C142.62 29.2944 143.758 28.4612 144.687 27.3716L146.61 29.5828C145.488 30.9287 144.094 31.9542 142.428 32.6592C140.761 33.3642 138.919 33.7167 136.9 33.7167C134.304 33.7167 131.997 33.1719 129.978 32.0823C127.959 30.9607 126.389 29.4225 125.267 27.4678C124.146 25.513 123.585 23.3018 123.585 20.8343C123.585 18.3668 124.114 16.1556 125.171 14.2008C126.261 12.2461 127.751 10.7239 129.642 9.63433C131.532 8.54478 133.679 8 136.083 8C138.326 8 140.345 8.51273 142.139 9.53819C143.966 10.5637 145.408 11.9897 146.466 13.8163C147.555 15.6429 148.132 17.7259 148.196 20.0652L127.43 24.103C128.071 26.1539 129.225 27.7722 130.891 28.9579C132.59 30.1115 134.609 30.6884 136.948 30.6884ZM136.083 10.9322C134.32 10.9322 132.734 11.3488 131.324 12.182C129.946 12.9831 128.856 14.1207 128.055 15.5948C127.286 17.0369 126.902 18.7033 126.902 20.594C126.902 21.0746 126.918 21.4271 126.95 21.6515L144.783 18.1905C144.399 16.0755 143.421 14.345 141.851 12.9991C140.281 11.6212 138.358 10.9322 136.083 10.9322Z" fill="white"/>
<path d="M81.3631 30.6884C82.9333 30.6884 84.3754 30.416 85.6892 29.8712C87.0351 29.2944 88.1728 28.4612 89.1021 27.3716L91.0248 29.5828C89.9032 30.9287 88.5092 31.9542 86.8429 32.6592C85.1765 33.3642 83.3339 33.7167 81.315 33.7167C78.7193 33.7167 76.412 33.1719 74.3931 32.0823C72.3742 30.9607 70.804 29.4225 69.6824 27.4678C68.5608 25.513 68 23.3018 68 20.8343C68 18.3668 68.5288 16.1556 69.5863 14.2008C70.6758 12.2461 72.1659 10.7239 74.0566 9.63433C75.9473 8.54478 78.0944 8 80.4978 8C82.741 8 84.7599 8.51273 86.5545 9.53819C88.3811 10.5637 89.8231 11.9897 90.8806 13.8163C91.9702 15.6429 92.547 17.7259 92.6111 20.0652L71.8455 24.103C72.4864 26.1539 73.64 27.7722 75.3064 28.9579C77.0048 30.1115 79.0237 30.6884 81.3631 30.6884ZM80.4978 10.9322C78.7353 10.9322 77.149 11.3488 75.739 12.182C74.3611 12.9831 73.2715 14.1207 72.4704 15.5948C71.7013 17.0369 71.3167 18.7033 71.3167 20.594C71.3167 21.0746 71.3328 21.4271 71.3648 21.6515L89.1982 18.1905C88.8137 16.0755 87.8363 14.345 86.266 12.9991C84.6958 11.6212 82.7731 10.9322 80.4978 10.9322Z" fill="white"/>
<path d="M211 8V18.8754C211 23.8631 209.827 27.6308 207.48 30.1785C205.167 32.7262 201.884 34 197.633 34C194.81 34 192.395 33.4259 190.388 32.2776C188.415 31.1294 186.952 29.4967 186 27.3796C185.014 29.5326 183.534 31.1832 181.561 32.3314C179.588 33.4438 177.207 34 174.418 34C170.133 34 166.816 32.7262 164.469 30.1785C162.156 27.6308 161 23.8631 161 18.8754V8H164.776V18.7139C164.776 26.5364 167.99 30.4476 174.418 30.4476C177.514 30.4476 179.912 29.4967 181.612 27.5949C183.313 25.6572 184.163 22.6969 184.163 18.7139V8H187.888V18.7139C187.888 22.7328 188.721 25.6931 190.388 27.5949C192.088 29.4967 194.503 30.4476 197.633 30.4476C200.728 30.4476 203.109 29.4967 204.776 27.5949C206.442 25.6572 207.276 22.6969 207.276 18.7139V8H211Z" fill="white"/>
<circle cx="163" cy="4" r="2" fill="white"/>
<circle cx="186" cy="4" r="2" fill="white"/>
<circle cx="209" cy="4" r="2" fill="white"/>
</svg>
