<svg width="22" height="26" viewBox="0 0 22 26" fill="none" xmlns="http://www.w3.org/2000/svg">
<path d="M21.7647 10.7291C21.7647 12.6118 21.3403 14.326 20.4914 15.8718C19.6623 17.4176 18.4975 18.6661 16.9972 19.6174C15.5166 20.5488 13.8386 21.0938 11.9632 21.2523V25.1465H9.80152V21.2523C7.9261 21.0938 6.23823 20.5389 4.7379 19.5876C3.2573 18.6364 2.09257 17.3978 1.2437 15.8718C0.414566 14.326 0 12.6118 0 10.7291C0 8.72754 0.463919 6.92413 1.39176 5.3189C2.33934 3.71367 3.64226 2.45524 5.30052 1.54363C6.97853 0.6122 8.84407 0.146484 10.8972 0.146484C12.9502 0.146484 14.7961 0.602291 16.4346 1.5139C18.0928 2.42552 19.3958 3.69385 20.3433 5.3189C21.2909 6.92413 21.7647 8.72754 21.7647 10.7291ZM11.904 19.2904C13.3846 19.1516 14.7072 18.6958 15.8719 17.9229C17.0367 17.1302 17.9448 16.1096 18.5962 14.8611C19.2477 13.6126 19.5734 12.2353 19.5734 10.7291C19.5734 9.10408 19.1983 7.63757 18.4482 6.3296C17.698 5.02163 16.6616 3.99111 15.3389 3.23804C14.0163 2.48497 12.5357 2.10843 10.8972 2.10843C9.25864 2.10843 7.76817 2.48497 6.42577 3.23804C5.10311 3.99111 4.05682 5.02163 3.28691 6.3296C2.53675 7.63757 2.16166 9.10408 2.16166 10.7291C2.16166 12.2353 2.48739 13.6126 3.13886 14.8611C3.81006 16.1096 4.72802 17.1203 5.89276 17.8932C7.05749 18.6661 8.38015 19.1318 9.86075 19.2904V14.1477H11.904V19.2904Z" fill="white"/>
<ellipse cx="14.1211" cy="11.4099" rx="1.32353" ry="1.47059" transform="rotate(21.358 14.1211 11.4099)" fill="white"/>
<ellipse cx="1.32353" cy="1.47059" rx="1.32353" ry="1.47059" transform="matrix(-0.931323 0.364194 0.364194 0.931323 8.34766 9.55826)" fill="white"/>
</svg>
