<svg width="1080" height="188" viewBox="0 0 1080 188" fill="none" xmlns="http://www.w3.org/2000/svg">
<path d="M542.725 40.9037V155.101H527.962V134.259C523.91 141.206 518.337 146.634 511.245 150.542C504.153 154.305 496.048 156.186 486.929 156.186C472.022 156.186 460.226 152.061 451.541 143.811C443.002 135.417 438.732 123.186 438.732 107.121V40.9037H454.147V105.601C454.147 117.614 457.114 126.732 463.048 132.956C468.982 139.18 477.449 142.292 488.449 142.292C500.462 142.292 509.942 138.673 516.89 131.436C523.837 124.055 527.311 113.851 527.311 100.825V40.9037H542.725Z" fill="#4DC12A"/>
<path d="M289.437 40.9037V155.101H274.673V134.259C270.621 141.206 265.049 146.634 257.956 150.542C250.864 154.305 242.759 156.186 233.641 156.186C218.733 156.186 206.937 152.061 198.253 143.811C189.713 135.417 185.443 123.186 185.443 107.121V40.9037H200.858V105.601C200.858 117.614 203.825 126.732 209.759 132.956C215.693 139.18 224.16 142.292 235.16 142.292C247.174 142.292 256.654 138.673 263.601 131.436C270.548 124.055 274.022 113.851 274.022 100.825V40.9037H289.437Z" fill="#4DC12A"/>
<path d="M162.828 79.3686C162.828 93.4535 159.653 106.278 153.302 117.843C147.099 129.407 138.386 138.748 127.161 145.864C116.085 152.833 103.531 156.91 89.5003 158.096V187.229H73.3282V158.096C59.2976 156.91 46.6701 152.758 35.4456 145.642C24.3689 138.525 15.6552 129.259 9.30448 117.843C3.1015 106.278 0 93.4535 0 79.3686C0 64.3941 3.47072 50.9023 10.4122 38.8931C17.5013 26.8838 27.2488 17.4692 39.6548 10.6491C52.2085 3.6808 66.1652 0.19664 81.525 0.19664C96.8848 0.19664 110.694 3.60667 122.952 10.4267C135.358 17.2468 145.106 26.7356 152.195 38.8931C159.284 50.9023 162.828 64.3941 162.828 79.3686ZM89.0572 143.418C100.134 142.38 110.029 138.97 118.743 133.188C127.457 127.257 134.25 119.622 139.124 110.281C143.998 100.941 146.435 90.6365 146.435 79.3686C146.435 67.2111 143.629 56.2397 138.017 46.4544C132.404 36.6691 124.651 28.9595 114.755 23.3255C104.86 17.6916 93.7833 14.8746 81.525 14.8746C69.2667 14.8746 58.1161 17.6916 48.0732 23.3255C38.1779 28.9595 30.3503 36.6691 24.5904 46.4544C18.9782 56.2397 16.1721 67.2111 16.1721 79.3686C16.1721 90.6365 18.609 100.941 23.4827 110.281C28.5042 119.622 35.3718 127.183 44.0855 132.965C52.7992 138.748 62.6945 142.232 73.7713 143.418V104.944H89.0572V143.418Z" fill="#4DC12A"/>
<ellipse cx="105.645" cy="84.4616" rx="9.90173" ry="11.0019" transform="rotate(21.358 105.645 84.4616)" fill="#4DC12A"/>
<ellipse cx="9.90173" cy="11.0019" rx="9.90173" ry="11.0019" transform="matrix(-0.931323 0.364194 0.364194 0.931323 62.4512 70.6091)" fill="#4DC12A"/>
<path d="M1028.37 139C1035.47 139 1041.99 137.768 1047.93 135.304C1054.02 132.695 1059.17 128.927 1063.37 123.999L1072.07 134C1066.99 140.088 1060.69 144.726 1053.15 147.914C1045.61 151.103 1037.28 152.698 1028.15 152.698C1016.41 152.698 1005.97 150.234 996.841 145.306C987.709 140.233 980.607 133.275 975.534 124.434C970.461 115.592 967.925 105.591 967.925 94.4305C967.925 83.2699 970.316 73.2688 975.099 64.4273C980.027 55.5857 986.767 48.7009 995.319 43.7729C1003.87 38.8448 1013.58 36.3808 1024.45 36.3808C1034.6 36.3808 1043.73 38.6999 1051.85 43.338C1060.11 47.9762 1066.63 54.4262 1071.41 62.6879C1076.34 70.9497 1078.95 80.371 1079.24 90.9518L985.318 109.215C988.217 118.491 993.435 125.811 1000.97 131.174C1008.65 136.391 1017.79 139 1028.37 139ZM1024.45 49.6431C1016.48 49.6431 1009.31 51.5273 1002.93 55.2958C996.696 58.9194 991.768 64.0649 988.144 70.7323C984.666 77.2547 982.926 84.7918 982.926 93.3434C982.926 95.5175 982.999 97.1119 983.144 98.1265L1063.8 82.4727C1062.07 72.9064 1057.64 65.0795 1050.54 58.9919C1043.44 52.7593 1034.74 49.6431 1024.45 49.6431Z" fill="#4DC12A"/>
<path d="M619.417 139C626.519 139 633.042 137.768 638.984 135.304C645.072 132.695 650.217 128.927 654.421 123.999L663.117 134C658.044 140.088 651.739 144.726 644.202 147.914C636.665 151.103 628.331 152.698 619.2 152.698C607.459 152.698 597.023 150.234 587.892 145.306C578.76 140.233 571.658 133.275 566.585 124.434C561.512 115.592 558.976 105.591 558.976 94.4305C558.976 83.2699 561.367 73.2688 566.15 64.4273C571.078 55.5857 577.818 48.7009 586.37 43.7729C594.922 38.8448 604.633 36.3808 615.504 36.3808C625.65 36.3808 634.781 38.6999 642.898 43.338C651.16 47.9762 657.682 54.4262 662.465 62.6879C667.393 70.9497 670.002 80.371 670.292 90.9518L576.369 109.215C579.268 118.491 584.486 125.811 592.023 131.174C599.705 136.391 608.836 139 619.417 139ZM615.504 49.6431C607.532 49.6431 600.357 51.5273 593.979 55.2958C587.747 58.9194 582.819 64.0649 579.195 70.7323C575.717 77.2547 573.977 84.7918 573.977 93.3434C573.977 95.5175 574.05 97.1119 574.195 98.1265L654.856 82.4727C653.116 72.9064 648.695 65.0795 641.593 58.9919C634.491 52.7593 625.794 49.6431 615.504 49.6431Z" fill="#4DC12A"/>
<path d="M368.006 139C375.108 139 381.631 137.768 387.573 135.304C393.661 132.695 398.807 128.927 403.01 123.999L411.707 134C406.634 140.088 400.328 144.726 392.791 147.914C385.254 151.103 376.92 152.698 367.789 152.698C356.048 152.698 345.612 150.234 336.481 145.305C327.35 140.232 320.247 133.275 315.174 124.434C310.101 115.592 307.565 105.591 307.565 94.4305C307.565 83.2698 309.956 73.2688 314.74 64.4272C319.668 55.5857 326.408 48.7009 334.959 43.7728C343.511 38.8448 353.222 36.3808 364.093 36.3808C374.239 36.3808 383.37 38.6998 391.487 43.338C399.749 47.9762 406.271 54.4262 411.054 62.6879C415.982 70.9497 418.591 80.371 418.881 90.9518L324.958 109.215C327.857 118.491 333.075 125.811 340.612 131.174C348.294 136.391 357.425 139 368.006 139ZM364.093 49.643C356.121 49.643 348.946 51.5273 342.569 55.2958C336.336 58.9194 331.408 64.0649 327.784 70.7323C324.306 77.2547 322.566 84.7917 322.566 93.3434C322.566 95.5175 322.639 97.1119 322.784 98.1265L403.445 82.4727C401.705 72.9064 397.285 65.0795 390.182 58.9919C383.08 52.7593 374.384 49.643 364.093 49.643Z" fill="#4DC12A"/>
<path d="M954.356 36.3808V85.5701C954.356 108.13 949.048 125.171 938.433 136.694C927.971 148.217 913.126 153.979 893.895 153.979C881.126 153.979 870.203 151.382 861.126 146.189C852.203 140.995 845.588 133.611 841.28 124.035C836.819 133.773 830.127 141.239 821.204 146.432C812.281 151.463 801.512 153.979 788.897 153.979C769.512 153.979 754.512 148.217 743.897 136.694C733.436 125.171 728.205 108.13 728.205 85.5701V36.3808H745.282V84.8398C745.282 120.221 759.82 137.912 788.897 137.912C802.896 137.912 813.742 133.611 821.435 125.009C829.127 116.245 832.973 102.855 832.973 84.8398V36.3808H849.819V84.8398C849.819 103.017 853.588 116.407 861.126 125.009C868.818 133.611 879.741 137.912 893.895 137.912C907.895 137.912 918.664 133.611 926.202 125.009C933.741 116.245 937.51 102.855 937.51 84.8398V36.3808H954.356Z" fill="#4DC12A"/>
<circle cx="737.251" cy="18.2887" r="9.04603" fill="#4DC12A"/>
<circle cx="841.28" cy="18.2887" r="9.04603" fill="#4DC12A"/>
<circle cx="945.31" cy="18.2887" r="9.04603" fill="#4DC12A"/>
</svg>
